<svg width="31" height="30" viewBox="0 0 31 30" fill="none" xmlns="http://www.w3.org/2000/svg">
<path d="M4.422 14.683L4.42633 14.7036C5.04223 17.6277 7.01289 20.1381 9.80187 21.4058L15.5 23.9959V20.9444H18.7222C23.1712 20.9444 26.7778 17.3379 26.7778 12.8889V11.2778C26.7778 6.82882 23.1712 3.22222 18.7222 3.22222H12.2778C7.82882 3.22222 4.22222 6.82882 4.22222 11.2778V12.8889C4.22222 13.5017 4.29007 14.0948 4.4174 14.6625L4.422 14.683ZM18.7222 29L8.46851 24.3392C4.73434 22.6419 2.0976 19.2812 1.27329 15.3677C1.09439 14.5701 1 13.7405 1 12.8889V11.2778C1 5.04923 6.04923 0 12.2778 0H18.7222C24.9508 0 30 5.04923 30 11.2778V12.8889C30 19.1174 24.9508 24.1667 18.7222 24.1667V29Z" fill="#C4C4C4"/>
</svg>
