<svg width="35" height="35" viewBox="0 0 35 35" fill="none" xmlns="http://www.w3.org/2000/svg">
<g clip-path="url(#clip0)">
<path d="M20.2313 34.7447H13.8513C13.0277 34.7447 12.3151 34.1787 12.1389 33.3842L11.4255 30.1231C10.4738 29.7113 9.57149 29.1964 8.73503 28.5878L5.51523 29.6004C4.73 29.8476 3.87638 29.5213 3.46451 28.8162L0.267492 23.362C-0.139868 22.6567 0.000475861 21.7669 0.605773 21.2174L3.10344 18.9671C2.98986 17.9478 2.98986 16.9192 3.10344 15.8999L0.605773 13.6548C-0.000415757 13.105 -0.140815 12.2142 0.267492 11.5085L3.4575 6.05078C3.86937 5.34576 4.72298 5.01936 5.50822 5.26665L8.72802 6.27926C9.1558 5.96623 9.60112 5.67728 10.0619 5.41379C10.5042 5.16746 10.9593 4.94443 11.4255 4.74564L12.1406 1.48799C12.316 0.69343 13.0278 0.126588 13.8513 0.125732H20.2313C21.0548 0.126588 21.7666 0.69343 21.942 1.48799L22.6641 4.74737C23.1563 4.96117 23.6356 5.20275 24.0996 5.47091C24.5331 5.71805 24.952 5.98908 25.3546 6.28272L28.5762 5.27012C29.3609 5.02375 30.2134 5.35002 30.6251 6.05424L33.8151 11.5119C34.2225 12.2173 34.0822 13.107 33.4769 13.6566L30.9792 15.9068C31.0928 16.9261 31.0928 17.9547 30.9792 18.9741L33.4769 21.2243C34.0822 21.7738 34.2225 22.6636 33.8151 23.3689L30.6251 28.8266C30.2134 29.5308 29.3609 29.8571 28.5762 29.6107L25.3546 28.5981C24.947 28.8946 24.5233 29.1691 24.0856 29.4203C23.6261 29.6833 23.1521 29.9208 22.6659 30.1318L21.942 33.3842C21.7659 34.1781 21.0543 34.7441 20.2313 34.7447ZM17.0343 10.5114C13.1622 10.5114 10.0233 13.6113 10.0233 17.4352C10.0233 21.2591 13.1622 24.359 17.0343 24.359C20.9064 24.359 24.0453 21.2591 24.0453 17.4352C24.0453 13.6113 20.9064 10.5114 17.0343 10.5114Z" fill="#40916C"/>
</g>
<defs>
<clipPath id="clip0">
<rect width="34.0117" height="34.0117" fill="white" transform="translate(0.0351562 0.125732)"/>
</clipPath>
</defs>
</svg>
