<svg width="31" height="32" viewBox="0 0 31 32" fill="none" xmlns="http://www.w3.org/2000/svg">
<path d="M24.2574 28.6247H6.58921C5.19523 28.6247 4.06519 27.4947 4.06519 26.1007V8.43253C4.06519 7.03856 5.19523 5.90851 6.58921 5.90851H9.11323V3.38449H11.6372V5.90851H19.2093V3.38449H21.7333V5.90851H24.2574C25.6513 5.90851 26.7814 7.03856 26.7814 8.43253V26.1007C26.7814 27.4947 25.6513 28.6247 24.2574 28.6247ZM6.58921 13.4806V26.1007H24.2574V13.4806H6.58921ZM6.58921 8.43253V10.9566H24.2574V8.43253H6.58921ZM14.1613 24.0991L9.483 19.4209L11.2675 17.6364L14.1613 20.5302L19.5791 15.1124L21.3636 16.8968L14.1613 24.0979V24.0991Z" fill="#40916C"/>
</svg>
