<svg width="31" height="32" viewBox="0 0 31 32" fill="none" xmlns="http://www.w3.org/2000/svg">
<path d="M15.3301 28.6247C8.36018 28.6247 2.70996 22.9745 2.70996 16.0046C2.70996 9.03471 8.36018 3.38449 15.3301 3.38449C22.3 3.38449 27.9502 9.03471 27.9502 16.0046C27.9425 22.9713 22.2968 28.6171 15.3301 28.6247ZM15.3301 5.90851C9.75415 5.90851 5.23398 10.4287 5.23398 16.0046C5.23398 21.5805 9.75415 26.1007 15.3301 26.1007C20.906 26.1007 25.4262 21.5805 25.4262 16.0046C25.4199 10.4313 20.9034 5.91477 15.3301 5.90851ZM15.3301 23.5767C13.3361 23.6104 11.4514 22.668 10.282 21.0526C9.71422 20.2933 9.28682 19.4385 9.02001 18.5286H21.6401C21.6401 18.5286 21.6401 18.5286 21.6401 18.5387C21.3692 19.4438 20.9421 20.2946 20.3781 21.0526C19.2086 22.6679 17.324 23.6102 15.3301 23.5767ZM10.913 16.0046C9.86755 16.0046 9.02001 15.1571 9.02001 14.1116C9.02001 13.0661 9.86755 12.2186 10.913 12.2186C11.9585 12.2186 12.806 13.0661 12.806 14.1116C12.806 15.1571 11.9585 16.0046 10.913 16.0046ZM19.7383 15.9869C18.6977 15.9869 17.8541 15.1434 17.8541 14.1027C17.8541 13.0621 18.6977 12.2186 19.7383 12.2186C20.7789 12.2186 21.6225 13.0621 21.6225 14.1027C21.6211 15.1428 20.7783 15.9855 19.7383 15.9869Z" fill="#40916C"/>
</svg>
