<svg width="31" height="32" viewBox="0 0 31 32" fill="none" xmlns="http://www.w3.org/2000/svg">
<path d="M24.0716 27.3627H6.40342C5.00944 27.3627 3.87939 26.2327 3.87939 24.8387V7.17054C3.87939 5.77656 5.00944 4.64651 6.40342 4.64651H24.0716C25.4655 4.64651 26.5956 5.77656 26.5956 7.17054V24.8387C26.5956 26.2327 25.4655 27.3627 24.0716 27.3627ZM6.40342 7.17054V24.8387H24.0716V7.17054H6.40342ZM22.8096 22.3147H7.66543L11.4515 17.2666L12.7135 18.5286L16.4995 13.4806L22.8096 22.3147ZM10.8205 14.7426C9.77497 14.7426 8.92744 13.8951 8.92744 12.8496C8.92744 11.8041 9.77497 10.9566 10.8205 10.9566C11.8659 10.9566 12.7135 11.8041 12.7135 12.8496C12.7135 13.8951 11.8659 14.7426 10.8205 14.7426Z" fill="#40916C"/>
</svg>
