<svg width="30" height="30" viewBox="0 0 30 30" fill="none" xmlns="http://www.w3.org/2000/svg">
<g clip-path="url(#clip0)">
<path d="M19.5 23C19.1 23.4 16.6667 25.5 15.5 26.5L8.5 22C6.83333 20.1667 3.4 16.4 3 16C2.6 15.6 1.5 12.8333 1 11.5L2 7L5 3H11L15.5 6L19 3L25.5 3.5L28 7V11.5L25.5 17.5C23.6667 19.1667 19.9 22.6 19.5 23Z" fill="#CD2553"/>
<path d="M14.9353 28.6138C13.972 27.7442 12.8832 26.8395 11.7317 25.8771H11.7168C7.66183 22.5018 3.06625 18.6825 1.03654 14.106C0.369708 12.649 0.0163195 11.0639 1.70351e-05 9.45658C-0.00443635 7.25119 0.864444 5.13705 2.4103 3.59197C3.95616 2.0469 6.0485 1.20131 8.21443 1.24632C9.97773 1.24916 11.7031 1.76795 13.1849 2.74089C13.836 3.17112 14.4251 3.69154 14.9353 4.28716C15.4483 3.69388 16.0376 3.17377 16.6872 2.74089C18.1684 1.76776 19.8933 1.24894 21.6562 1.24632C23.8221 1.20131 25.9145 2.0469 27.4603 3.59197C29.0062 5.13705 29.875 7.25119 29.8706 9.45658C29.8554 11.0664 29.5019 12.6543 28.8341 14.1136C26.8044 18.6901 22.2103 22.5078 18.1553 25.8771L18.1404 25.8892C16.9874 26.8456 15.9001 27.7502 14.9368 28.626L14.9353 28.6138ZM8.21443 4.28716C6.82323 4.26943 5.48139 4.81146 4.48062 5.79541C3.51637 6.75961 2.97746 8.08067 2.98696 9.45658C3.004 10.6281 3.26463 11.7826 3.75177 12.8441C4.70989 14.8186 6.00268 16.6057 7.57072 18.123C9.05081 19.6434 10.7534 21.1151 12.226 22.3528C12.6338 22.6949 13.049 23.04 13.4642 23.3851L13.7255 23.6025C14.1243 23.934 14.5365 24.2776 14.9353 24.6151L14.9547 24.5969L14.9637 24.5893H14.9726L14.9861 24.5787H14.9936H15.001L15.0279 24.5558L15.0891 24.5057L15.0996 24.4965L15.116 24.4844H15.125L15.1384 24.4722L16.1301 23.6436L16.39 23.4262C16.8097 23.078 17.2249 22.7329 17.6326 22.3908C19.1052 21.1532 20.8093 19.6829 22.2894 18.1549C23.8577 16.6384 25.1505 14.8518 26.1084 12.8775C26.6043 11.8068 26.8687 10.6402 26.8836 9.45658C26.8897 8.08492 26.3511 6.76892 25.39 5.80758C24.3911 4.81918 23.0491 4.27269 21.6562 4.28716C19.9564 4.27245 18.3315 4.99775 17.1905 6.28043L14.9353 8.92595L12.6801 6.28043C11.5391 4.99775 9.91418 4.27245 8.21443 4.28716Z" fill="#CD2553"/>
</g>
<defs>
<clipPath id="clip0">
<rect width="29.8706" height="29.8706" fill="white"/>
</clipPath>
</defs>
</svg>
