<svg width="14" height="14" viewBox="0 0 14 14" fill="none" xmlns="http://www.w3.org/2000/svg">
<path d="M12.8071 14L7.98915 9.18149C5.84587 10.7052 2.89251 10.3325 1.19501 8.32411C-0.502503 6.31577 -0.377859 3.34178 1.48175 1.4825C3.34086 -0.377593 6.31532 -0.502768 8.32416 1.19455C10.333 2.89187 10.7059 5.84533 9.18204 7.98867L14 12.8072L12.8079 13.9992L12.8071 14ZM5.05791 1.68649C3.45926 1.68613 2.08004 2.80824 1.75529 4.37347C1.43054 5.93869 2.24951 7.51682 3.71636 8.15241C5.18322 8.78799 6.8948 8.30633 7.81484 6.99904C8.73489 5.69176 8.61052 3.91815 7.51705 2.75204L8.02708 3.25783L7.45213 2.6846L7.44202 2.67448C6.81125 2.03986 5.9527 1.68408 5.05791 1.68649Z" fill="#C4C4C4"/>
</svg>
