<svg width="35" height="34" viewBox="0 0 35 34" fill="none" xmlns="http://www.w3.org/2000/svg">
<g clip-path="url(#clip0)">
<path d="M4.5 26.5L3 31H7.5H12H20.5C22.6667 29.5 27.2 26.5 28 26.5C28.8 26.5 31 22.5 32 20.5V13.5L30 8.5L23.5 4L17 1L8.5 4L2 12V21.5L4.5 26.5Z" fill="#40916C"/>
<path d="M9.55316 28.0093L10.7876 28.6692C12.7005 29.692 14.8368 30.2255 17.006 30.2222L17.0117 30.2222C24.3144 30.2222 30.2339 24.3027 30.2339 17C30.2339 9.6973 24.3144 3.77778 17.0117 3.77778C9.70904 3.77778 3.78952 9.69731 3.78952 17V17.0057C3.78625 19.1749 4.31975 21.3112 5.34248 23.2242L6.00242 24.4586L4.98768 29.024L9.55316 28.0093ZM0.0117379 34L2.01094 25.0053C0.694342 22.5426 0.00753361 19.7925 0.0117379 17C0.0117379 7.6109 7.62263 0 17.0117 0C26.4008 0 34.0117 7.6109 34.0117 17C34.0117 26.3891 26.4008 34 17.0117 34C14.2192 34.0042 11.4691 33.3174 9.00643 32.0008L0.0117379 34Z" fill="#40916C"/>
<circle cx="25.5" cy="25.5" r="8.5" fill="#CD2553"/>
<path d="M22.744 25.572C22.744 24.196 22.968 23.124 23.416 22.356C23.864 21.58 24.648 21.192 25.768 21.192C26.88 21.192 27.66 21.58 28.108 22.356C28.556 23.124 28.78 24.196 28.78 25.572C28.78 26.972 28.556 28.06 28.108 28.836C27.66 29.612 26.88 30 25.768 30C24.648 30 23.864 29.612 23.416 28.836C22.968 28.06 22.744 26.972 22.744 25.572ZM27.7 25.572C27.7 24.876 27.652 24.288 27.556 23.808C27.468 23.32 27.28 22.928 26.992 22.632C26.712 22.336 26.304 22.188 25.768 22.188C25.224 22.188 24.808 22.336 24.52 22.632C24.24 22.928 24.052 23.32 23.956 23.808C23.868 24.288 23.824 24.876 23.824 25.572C23.824 26.292 23.868 26.896 23.956 27.384C24.052 27.872 24.24 28.264 24.52 28.56C24.808 28.856 25.224 29.004 25.768 29.004C26.304 29.004 26.712 28.856 26.992 28.56C27.28 28.264 27.468 27.872 27.556 27.384C27.652 26.896 27.7 26.292 27.7 25.572Z" fill="white"/>
</g>
<defs>
<clipPath id="clip0">
<rect width="34" height="34" fill="white" transform="translate(0.0117188)"/>
</clipPath>
</defs>
</svg>
