<svg width="35" height="35" viewBox="0 0 35 35" fill="none" xmlns="http://www.w3.org/2000/svg">
<g clip-path="url(#clip0)">
<path d="M16.0729 34.1374C14.2043 34.1282 12.6891 32.6135 12.6706 30.7362H19.4414C19.445 31.1909 19.3587 31.6418 19.1875 32.0627C18.7434 33.0864 17.8364 33.8331 16.75 34.0694H16.7416H16.7162H16.6857H16.6705C16.4738 34.1105 16.2738 34.1333 16.0729 34.1374ZM29.6146 29.0356H2.53125V25.6345L5.91667 23.9339V14.5807C5.82749 12.1814 6.36682 9.80056 7.48073 7.67632C8.58952 5.70622 10.4848 4.30726 12.6875 3.833V0.125732H19.4583V3.833C23.8238 4.87716 26.2292 8.69327 26.2292 14.5807V23.9339L29.6146 25.6345V29.0356Z" fill="#40916C"/>
<circle cx="25.5" cy="25.5" r="8.5" fill="#CD2553"/>
<path d="M22.744 25.572C22.744 24.196 22.968 23.124 23.416 22.356C23.864 21.58 24.648 21.192 25.768 21.192C26.88 21.192 27.66 21.58 28.108 22.356C28.556 23.124 28.78 24.196 28.78 25.572C28.78 26.972 28.556 28.06 28.108 28.836C27.66 29.612 26.88 30 25.768 30C24.648 30 23.864 29.612 23.416 28.836C22.968 28.06 22.744 26.972 22.744 25.572ZM27.7 25.572C27.7 24.876 27.652 24.288 27.556 23.808C27.468 23.32 27.28 22.928 26.992 22.632C26.712 22.336 26.304 22.188 25.768 22.188C25.224 22.188 24.808 22.336 24.52 22.632C24.24 22.928 24.052 23.32 23.956 23.808C23.868 24.288 23.824 24.876 23.824 25.572C23.824 26.292 23.868 26.896 23.956 27.384C24.052 27.872 24.24 28.264 24.52 28.56C24.808 28.856 25.224 29.004 25.768 29.004C26.304 29.004 26.712 28.856 26.992 28.56C27.28 28.264 27.468 27.872 27.556 27.384C27.652 26.896 27.7 26.292 27.7 25.572Z" fill="white"/>
</g>
<defs>
<clipPath id="clip0">
<rect width="34.0117" height="34.0117" fill="white" transform="translate(0.0117188 0.125732)"/>
</clipPath>
</defs>
</svg>
