<svg width="35" height="35" viewBox="0 0 35 35" fill="none" xmlns="http://www.w3.org/2000/svg">
<g clip-path="url(#clip0)">
<path d="M11.9999 15.5L13.9999 10.5L16.9999 9.5L21.9999 11.5L20.4999 17.5L15.4999 18.5L11.9999 15.5Z" fill="#40916C"/>
<path d="M24.4999 29L21.9999 26L16.9999 24.5L11.9999 26L9.99994 29C10.3333 30.1667 10.7999 32.5 9.99994 32.5H16.9999L24.4999 31V29Z" fill="#40916C"/>
<path d="M17.0293 34.7202C14.4581 34.7274 11.9194 34.1457 9.608 33.0195C8.76205 32.6081 7.95152 32.1274 7.18469 31.5826L6.95171 31.4125C4.8427 29.8558 3.11842 27.8366 1.91124 25.5098C0.662571 23.1016 0.0149471 20.427 0.0235215 17.7143C0.0235215 8.32233 7.6373 0.708588 17.0293 0.708588C26.4212 0.708588 34.035 8.32233 34.035 17.7143C34.0435 20.4257 33.3965 23.099 32.149 25.5064C30.9435 27.8318 29.2216 29.8504 27.1153 31.4074C26.3208 31.989 25.4776 32.5011 24.5951 32.9379L24.459 33.0059C22.1461 34.138 19.6044 34.7245 17.0293 34.7202ZM17.0293 26.2172C14.4809 26.2122 12.1447 27.6356 10.9804 29.9024C14.792 31.7903 19.2665 31.7903 23.0782 29.9024V29.8939C21.9124 27.6295 19.5761 26.2094 17.0293 26.2172ZM17.0293 22.8161C20.7129 22.8209 24.1094 24.8059 25.9215 28.013L25.947 27.9909L25.9708 27.9705L25.9419 27.996L25.9249 28.0096C30.2257 24.2941 31.7635 18.2965 29.7812 12.9699C27.799 7.64333 22.7144 4.11028 17.031 4.11028C11.3475 4.11028 6.26297 7.64333 4.28072 12.9699C2.29847 18.2965 3.83628 24.2941 8.13701 28.0096C9.95025 24.8041 13.3465 22.8205 17.0293 22.8161ZM17.0293 21.1155C13.2725 21.1155 10.227 18.07 10.227 14.3132C10.227 10.5564 13.2725 7.51089 17.0293 7.51089C20.7861 7.51089 23.8315 10.5564 23.8315 14.3132C23.8315 16.1173 23.1149 17.8475 21.8392 19.1232C20.5635 20.3988 18.8333 21.1155 17.0293 21.1155ZM17.0293 10.912C15.1509 10.912 13.6281 12.4348 13.6281 14.3132C13.6281 16.1916 15.1509 17.7143 17.0293 17.7143C18.9077 17.7143 20.4304 16.1916 20.4304 14.3132C20.4304 12.4348 18.9077 10.912 17.0293 10.912Z" fill="#40916C"/>
</g>
<defs>
<clipPath id="clip0">
<rect width="34.0117" height="34.0117" fill="white" transform="translate(0.0234375 0.708588)"/>
</clipPath>
</defs>
</svg>
