<svg width="66" height="34" viewBox="0 0 66 34" fill="none" xmlns="http://www.w3.org/2000/svg">
<circle cx="27.5465" cy="10.4283" r="10.4283" fill="#CD2553"/>
<path d="M50.8136 32.1704H3.73853L3.8861 30.1536L5.55856 29.6617C10.5596 28.8583 20.66 27.2514 21.0535 27.2514C21.447 27.2514 22.5292 21.6437 23.0211 18.8398L35.3186 17.2658V17.9052L37.5814 20.9058L43.1399 5.21416L44.468 5.06659L45.7962 4.91902L47.2719 4.77145L48.9443 4.67307L50.8136 4.77145V32.1704Z" fill="#CD2553"/>
<circle cx="2.06599" cy="30.9898" r="2.06599" fill="#CD2553"/>
<path fill-rule="evenodd" clip-rule="evenodd" d="M3.73853 30.2028L27.5466 29.3638L21.8426 15.0522L18.7178 15.2496L18.4211 15.5457L3.73853 30.2028ZM17.6102 21.2502C16.7408 21.2502 16.0361 21.9549 16.0361 22.8243V24.5951C16.0361 25.4644 16.7408 26.1692 17.6102 26.1692C18.4795 26.1692 19.1843 25.4644 19.1843 24.5951V22.8243C19.1843 21.9549 18.4795 21.2502 17.6102 21.2502Z" fill="#CD2553"/>
<path fill-rule="evenodd" clip-rule="evenodd" d="M46.3372 31.8548C47.4149 32.0615 48.534 32.1704 49.6821 32.1704C58.3212 32.1704 65.3246 26.0039 65.3246 18.3971C65.3246 10.7904 58.3212 4.62387 49.6821 4.62387C48.534 4.62387 47.4149 4.73277 46.3372 4.93948V31.8548Z" fill="#CD2553"/>
<path d="M39.1554 6.0996L43.1398 5.21417L45.6485 22.4799C41.6477 22.2832 33.5969 21.8995 33.4001 21.9388C33.2033 21.9782 33.8428 18.971 34.1872 17.4625L35.2693 17.3642L35.2729 17.4597C35.3116 17.9961 35.6816 18.8291 36.9418 18.4955C40.877 14.521 40.0572 8.5755 39.1554 6.0996Z" fill="#CD2553"/>
</svg>
