<svg width="30" height="30" viewBox="0 0 30 30" fill="none" xmlns="http://www.w3.org/2000/svg">
<g clip-path="url(#clip0)">
<path d="M23.9497 29.8703C22.3387 29.8889 20.8117 29.1527 19.823 27.8807C18.8342 26.6086 18.4974 24.9472 18.9129 23.3905L9.59262 18.0631C7.98209 19.5387 5.62135 19.851 3.68256 18.8449C1.74378 17.8389 0.639909 15.7288 0.91906 13.5624C1.19821 11.3959 2.80092 9.63461 4.93141 9.15296C7.06189 8.6713 9.26634 9.5719 10.4502 11.4076L18.9114 6.57005C18.8019 6.1564 18.7439 5.73083 18.7387 5.30297C18.7174 2.81157 20.4476 0.647307 22.8825 0.11975C25.3174 -0.407806 27.7882 0.846229 28.7999 3.12306C29.8116 5.39988 29.0863 8.0742 27.0629 9.52781C25.0394 10.9814 22.2736 10.8151 20.439 9.12951L11.281 14.3631C11.2719 14.7492 11.218 15.1329 11.1202 15.5066L20.439 20.8325C22.1545 19.258 24.7072 19.015 26.689 20.2374C28.6709 21.4598 29.5994 23.8501 28.9625 26.0899C28.3255 28.3297 26.2782 29.8737 23.9497 29.8703ZM23.9497 22.4256C22.7163 22.4256 21.7164 23.4256 21.7164 24.659C21.7164 25.8925 22.7163 26.8924 23.9497 26.8924C25.1831 26.8924 26.183 25.8925 26.183 24.659C26.183 23.4256 25.1831 22.4256 23.9497 22.4256ZM6.08337 12.0031C4.84996 12.0031 3.85008 13.0031 3.85008 14.2365C3.85008 15.47 4.84996 16.4699 6.08337 16.4699C7.31679 16.4699 8.31666 15.47 8.31666 14.2365C8.31666 13.0031 7.31679 12.0031 6.08337 12.0031ZM23.9497 3.06958C22.7163 3.06958 21.7164 4.0695 21.7164 5.30297C21.7164 6.53644 22.7163 7.53636 23.9497 7.53636C25.1831 7.53636 26.183 6.53644 26.183 5.30297C26.183 4.0695 25.1831 3.06958 23.9497 3.06958Z" fill="#C4C4C4"/>
</g>
<defs>
<clipPath id="clip0">
<rect width="29.8706" height="29.8706" fill="white" transform="translate(0.129395)"/>
</clipPath>
</defs>
</svg>
